<mxfile host="app.diagrams.net" modified="2023-06-27T13:46:35.108Z" agent="Mozilla/5.0 (X11; Linux x86_64) AppleWebKit/537.36 (KHTML, like Gecko) Chrome/113.0.0.0 Safari/537.36" version="21.5.1" etag="5HHR_WBqR6SmHHVWDOsL" type="github">
  <diagram name="Сторінка-1" id="AUrF1MnxUQQYqcLPQORE">
    <mxGraphModel>
      <root>
        <mxCell id="0" />
        <mxCell id="1" parent="0" />
      </root>
    </mxGraphModel>
  </diagram>
</mxfile>
